<svg xmlns="http://www.w3.org/2000/svg">
  <symbol id="package" viewBox="0 0 24 24"><path d="m7.5 4.27 9 5.15"/><path d="M21 8a2 2 0 0 0-1-1.73l-7-4a2 2 0 0 0-2 0l-7 4A2 2 0 0 0 3 8v8a2 2 0 0 0 1 1.73l7 4a2 2 0 0 0 2 0l7-4A2 2 0 0 0 21 16Z"/><path d="m3.3 7 8.7 5 8.7-5"/><path d="M12 22V12"/></symbol>
  <symbol id="x" viewBox="0 0 24 24"><path d="M18 6 6 18"/><path d="m6 6 12 12"/></symbol>
  <symbol id="arrow-right" viewBox="0 0 24 24"><path d="M5 12h14"/><path d="m12 5 7 7-7 7"/></symbol>
  <symbol id="search" viewBox="0 0 24 24"><circle cx="11" cy="11" r="8"/><path d="m21 21-4.3-4.3"/></symbol>
  <symbol id="filter" viewBox="0 0 24 24"><path d="M10 18h4"/><path d="M3 6h18"/><path d="M6 12h12"/></symbol>
  <symbol id="plus" viewBox="0 0 24 24"><path d="M5 12h14"/><path d="M12 5v14"/></symbol>
  <symbol id="tags" viewBox="0 0 24 24"><path d="M9.586 4.586A2 2 0 0 1 11 4h5a2 2 0 0 1 2 2v5a2 2 0 0 1-.586 1.414l-5 5a2 2 0 0 1-2.828 0l-5-5a2 2 0 0 1 0-2.828Z"/><circle cx="14.5" cy="7.5" r=".5" fill="currentColor"/></symbol>
  <symbol id="inbox" viewBox="0 0 24 24"><path d="M4 4h16v16H4z"/><path d="M4 14h4l2 3h4l2-3h4"/></symbol>
  <symbol id="circle-check" viewBox="0 0 24 24"><circle cx="12" cy="12" r="9"/><path d="m8 12 2.5 2.5L16 9"/></symbol>
  <symbol id="user-round" viewBox="0 0 24 24"><circle cx="12" cy="8" r="4"/><path d="M4 21a8 8 0 0 1 16 0"/></symbol>
  <symbol id="clock" viewBox="0 0 24 24"><circle cx="12" cy="12" r="9"/><path d="M12 7v5l3 2"/></symbol>
  <symbol id="triangle-alert" viewBox="0 0 24 24"><path d="m12 3 10 18H2Z"/><path d="M12 9v5M12 18h.01"/></symbol>
</svg>
